<svg xmlns="http://www.w3.org/2000/svg" viewBox="0 0 413.36 512"><defs><style>.cls-1{fill:#2541b3;}</style></defs><g id="Layer_2" data-name="Layer 2"><g id="Capa_1" data-name="Capa 1"><path class="cls-1" d="M412.59,4.28A7.59,7.59,0,0,0,405.76,0H256.22a7.61,7.61,0,0,0-6,2.92L206.68,58.51,163.12,2.92a7.61,7.61,0,0,0-6-2.92H7.6a7.61,7.61,0,0,0-6,12.3L102.91,141.57a20.28,20.28,0,0,0-4,12V228A162.11,162.11,0,0,0,44.21,349.52C44.21,439.11,117.09,512,206.69,512s162.47-72.89,162.47-162.48A162.12,162.12,0,0,0,314.4,228V153.58a20.13,20.13,0,0,0-4-12L411.74,12.3A7.58,7.58,0,0,0,412.59,4.28ZM308.27,15.21h33.54L257.28,123.09l-16.77-21.41Zm-48.34,0h29l-58.1,74.14L216.34,70.84Zm-106.49,0L265.83,158.65h-29L124.42,15.21Zm120.4,158.65v27.72a162.38,162.38,0,0,0-134.32,0V173.86ZM23.22,15.21h29L92.15,66.15a7.61,7.61,0,0,0,10.68,1.3h0a7.62,7.62,0,0,0,1.3-10.68L71.56,15.21h33.55L217.5,158.65H184L126.82,85.74a7.61,7.61,0,0,0-10.67-1.3h0a7.59,7.59,0,0,0-1.3,10.67l49.78,63.53h-29ZM124.31,168.88v40.65c-3.46,2-6.85,4.21-10.14,6.5V155.94ZM354,349.52c0,81.21-66.07,147.27-147.27,147.27S59.42,430.73,59.42,349.52s66.06-147.27,147.27-147.27S354,268.31,354,349.52ZM289,165.46a0,0,0,0,0,0,0,6.65,6.65,0,0,0-.16-.91,1.6,1.6,0,0,0,0-.21,6.8,6.8,0,0,0-.26-.8.56.56,0,0,1,0-.12,8.79,8.79,0,0,0-.43-.87l-.09-.16a6.45,6.45,0,0,0-.47-.69.61.61,0,0,0-.07-.1L277.2,148.51h16.92a5.08,5.08,0,0,1,5.07,5.07V216q-4.94-3.42-10.14-6.5V166.26A7,7,0,0,0,289,165.46Zm8.37-31.87a20.58,20.58,0,0,0-3.26-.29H268.6L361.13,15.21h29Z"/><path class="cls-1" d="M318,296a7.64,7.64,0,0,0-10.64-3.38h0a7.6,7.6,0,0,0-3.09,9.92A108.39,108.39,0,0,1,202.4,457.78c-56.22-2.18-101.79-47.75-104-104a108.34,108.34,0,0,1,186.81-78.89,7.6,7.6,0,1,0,11.07-10.42A123.55,123.55,0,0,0,83.23,354.41C85.72,418.53,137.68,470.49,201.8,473A123.59,123.59,0,0,0,318,296Z"/><path class="cls-1" d="M212.62,266.87a7.87,7.87,0,0,0-6,2.45l-23.21,22.32a11.64,11.64,0,0,0-4.69,9.15c0,4.69,3.35,9.59,8,9.59a7.45,7.45,0,0,0,4.91-2.23l7.81-9.82h0V422.41c0,5.13,5.81,7.81,11.83,7.81,5.8,0,11.83-2.68,11.83-7.81V274.68C223.11,269.77,217.53,266.87,212.62,266.87Z"/></g></g></svg>