<?xml version="1.0" encoding="utf-8"?>
<!-- Generator: Adobe Illustrator 24.1.2, SVG Export Plug-In . SVG Version: 6.00 Build 0)  -->
<svg version="1.1"
	 id="Layer_1" xmlns:cc="http://creativecommons.org/ns#" xmlns:dc="http://purl.org/dc/elements/1.1/" xmlns:inkscape="http://www.inkscape.org/namespaces/inkscape" xmlns:rdf="http://www.w3.org/1999/02/22-rdf-syntax-ns#" xmlns:sodipodi="http://sodipodi.sourceforge.net/DTD/sodipodi-0.dtd" xmlns:svg="http://www.w3.org/2000/svg"
	 xmlns="http://www.w3.org/2000/svg" xmlns:xlink="http://www.w3.org/1999/xlink" x="0px" y="0px" viewBox="0 0 512 512"
	 style="enable-background:new 0 0 512 512;" xml:space="preserve">
<style type="text/css">
	.st0{fill:#2541B3;}
</style>
<g transform="translate(89.844939,-88.961904)">
	<path class="st0" d="M-71.6,120.9c-10.1,0.2-18.3,11.1-18.3,22.4v403.2c0,12.4,8.2,22.4,18.3,22.4h475.4
		c12.7,0.2,18.3-11.1,18.3-22.4c0-11.3-5.9-22.4-18.4-22.4h-457V143.3C-53.3,130.7-61.3,120.9-71.6,120.9z"/>
	<path class="st0" d="M257.6,120.9c-16.3,0-24.4,24.2-12.9,38.3l41.9,51.3l-83.8,102.8l-42.1-51.4c-7.1-8.7-18.7-8.7-25.9,0
		L25.1,396.3c-4.3,5.3-5.2,10.2-5.2,15.8c0,5.7,1.7,12.1,5,16.1s8.7,6.3,13.3,6.3c4.5,0,8.4-1.2,12.8-6.6l96.9-118.6l41.8,51.4
		c7.1,8.7,18.7,8.7,25.9,0L312.5,242l42,51.5c11.5,14.1,31.2,4.1,31.3-15.8V143.3c0-12.4-8.2-22.4-18.3-22.4H257.6z"/>
</g>
</svg>
