<?xml version="1.0" encoding="utf-8"?>
<!-- Generator: Adobe Illustrator 24.1.2, SVG Export Plug-In . SVG Version: 6.00 Build 0)  -->
<svg version="1.1" id="Capa_1" xmlns="http://www.w3.org/2000/svg" xmlns:xlink="http://www.w3.org/1999/xlink" x="0px" y="0px"
	 viewBox="0 0 512 512" style="enable-background:new 0 0 512 512;" xml:space="preserve">
<style type="text/css">
	.st0{fill:#2541B3;}
</style>
<g>
	<g>
		<g>
			<path class="st0" d="M392.2,217.8v-80.9c0.2-36.6-14.4-71.8-40.5-97.5c-25.2-25.1-58.3-38.9-93.3-38.9c-0.5,0-1.2,0-1.7,0
				C182,0.6,121.4,61.7,121.4,136.9v80.9c-28.2,3.4-48.7,27-48.7,55.6v181.8c0,30.9,24.7,56.3,55.6,56.3h257.3
				c30.9,0,55.6-25.5,55.6-56.3V273.4C440.9,244.9,420.3,221.2,392.2,217.8z M142.9,136.9h0.1c0-63.3,51-115,113.7-115h0.1
				c29.8-0.1,58.4,11.7,79.5,32.7c22,21.8,34.2,51.5,34,82.3v81h-23.8v-81c0.2-24.6-9.5-48.2-27-65.5
				c-16.5-16.5-38.8-25.8-62.1-25.8h-0.6c-49.8,0-90.1,40.9-90.1,91.2v81.1h-23.8L142.9,136.9L142.9,136.9z M325,136.9v81H188.5v-81
				c0-38.3,30.5-69.5,68.5-69.5h0.6c17.5,0,34.4,7,46.9,19.5C317.8,100.1,325.2,118.2,325,136.9z M420.3,455.5L420.3,455.5
				c0,19-15.4,34.3-34.3,34.3H128.6c-19,0-34.3-15.4-34.3-34.3V273.9c0-19,15.4-34.3,34.3-34.3H386c19,0,34.3,15.4,34.3,34.3V455.5
				L420.3,455.5z"/>
		</g>
	</g>
	<g>
		<g>
			<path class="st0" d="M294.3,358c-4.8-16.8-20-28.3-37.5-28.3c-21.6,0-39.1,17.4-39.1,39.1c0,17.4,11.5,32.7,28.3,37.5v30.3
				c0,6,4.9,10.8,10.8,10.8c6,0,10.8-4.9,10.8-10.8v-30.3C288.3,400.3,300.3,378.7,294.3,358z M256.8,386.2
				c-9.6,0-17.4-7.8-17.4-17.4s7.8-17.4,17.4-17.4c9.6,0,17.4,7.8,17.4,17.4C274.2,378.4,266.4,386.2,256.8,386.2z"/>
		</g>
	</g>
</g>
</svg>
