<?xml version="1.0" encoding="utf-8"?>
<!-- Generator: Adobe Illustrator 24.1.2, SVG Export Plug-In . SVG Version: 6.00 Build 0)  -->
<svg version="1.1" id="Layer_1" xmlns="http://www.w3.org/2000/svg" xmlns:xlink="http://www.w3.org/1999/xlink" x="0px" y="0px"
	 viewBox="0 0 512 512" style="enable-background:new 0 0 512 512;" xml:space="preserve">
<style type="text/css">
	.st0{fill:#2541B3;}
</style>
<g>
	<path class="st0" d="M394.7,427.4c-5.9,0-10.7,4.8-10.7,10.7v53.3H42.7V150.1H160c5.9,0,10.7-4.8,10.7-10.7V22.1H384v202.7
		c0,5.9,4.8,10.7,10.7,10.7c5.9,0,10.7-4.8,10.7-10.7V11.4c0-5.9-4.8-10.7-10.7-10.7H160c-1.4,0-2.8,0.3-4.1,0.8
		c-0.4,0.2-0.7,0.5-1.1,0.7c-0.8,0.5-1.7,0.9-2.3,1.6l-128,128c-0.5,0.5-0.8,1.2-1.2,1.7c-0.4,0.6-0.9,1.1-1.1,1.7
		c-0.5,1.3-0.8,2.7-0.8,4.1V502c0,5.9,4.8,10.7,10.7,10.7h362.7c5.9,0,10.7-4.8,10.7-10.7v-64C405.3,432.2,400.6,427.4,394.7,427.4z
		 M57.8,128.7l91.6-91.6v91.6H57.8z"/>
	<path class="st0" d="M224,406.1c5.9,0,10.7-4.8,10.7-10.7v-128c0-4.7-3.1-8.9-7.6-10.2c-4.5-1.4-9.4,0.4-12,4.3l-33.8,50.7
		l-33.8-50.7c-2.6-3.9-7.5-5.7-12-4.3c-4.5,1.4-7.6,5.5-7.6,10.2v128c0,5.9,4.8,10.7,10.7,10.7s10.7-4.8,10.7-10.7v-92.8l23.1,34.7
		c4,5.9,13.8,5.9,17.7,0l23.1-34.7v92.8C213.3,401.3,218.1,406.1,224,406.1z"/>
	<path class="st0" d="M450.1,331.4l38.7-58.1c3.3-4.9,1.9-11.5-3-14.8c-4.9-3.3-11.5-1.9-14.8,3l-33.8,50.7l-33.8-50.7
		c-3.3-4.9-9.9-6.2-14.8-3c-4.9,3.3-6.2,9.9-3,14.8l38.7,58.1l-38.7,58.1c-3.3,4.9-1.9,11.5,3,14.8c1.8,1.2,3.9,1.8,5.9,1.8
		c3.4,0,6.8-1.7,8.9-4.8l33.8-50.7l33.8,50.7c2.1,3.1,5.5,4.8,8.9,4.8c2,0,4.1-0.6,5.9-1.8c4.9-3.3,6.2-9.9,3-14.8L450.1,331.4z"/>
	<path class="st0" d="M299.2,264l-42.7,128c-1.9,5.6,1.2,11.6,6.7,13.5c5.6,1.9,11.6-1.2,13.5-6.7l11.8-35.4H330l11.8,35.4
		c1.5,4.5,5.7,7.3,10.1,7.3c1.1,0,2.2-0.2,3.4-0.6c5.6-1.9,8.6-7.9,6.7-13.5l-42.7-128C316.6,255.3,302.1,255.3,299.2,264z
		 M295.7,342.1l13.7-40.9l13.7,40.9H295.7z"/>
</g>
</svg>
