<svg id="Layer_1" data-name="Layer 1" xmlns="http://www.w3.org/2000/svg" xmlns:xlink="http://www.w3.org/1999/xlink" viewBox="0 0 362.1 639"><defs><style>.cls-1{fill:url(#linear-gradient);}.cls-2{fill:url(#linear-gradient-2);}.cls-3{fill:url(#linear-gradient-3);}</style><linearGradient id="linear-gradient" x1="218.92" y1="15.64" x2="203.87" y2="660.06" gradientUnits="userSpaceOnUse"><stop offset="0.03" stop-color="#fff"/><stop offset="0.92" stop-color="#2541b3"/><stop offset="0.98" stop-color="#2541b3"/><stop offset="0.99" stop-color="#2541b3"/><stop offset="1" stop-color="#2541b3"/></linearGradient><linearGradient id="linear-gradient-2" x1="215.87" y1="-66.67" x2="198.87" y2="661.33" gradientUnits="userSpaceOnUse"><stop offset="0.08" stop-color="#fff"/><stop offset="0.09" stop-color="#fff"/><stop offset="0.86" stop-color="#2541b3"/></linearGradient><linearGradient id="linear-gradient-3" x1="226.55" y1="-98.1" x2="209.55" y2="629.9" gradientUnits="userSpaceOnUse"><stop offset="0.11" stop-color="#fff"/><stop offset="1" stop-color="#2541b3"/></linearGradient></defs><path class="cls-1" d="M213.1,426.7a20.27,20.27,0,0,1-11.7-3.6L41.6,316.6A21,21,0,0,1,32,298.9V235a21.38,21.38,0,0,1,21.3-21.3A20.27,20.27,0,0,1,65,217.3l148,98.6,148.1-98.5a20.5,20.5,0,0,1,11.7-3.6,21.38,21.38,0,0,1,21.3,21.3V299a21.11,21.11,0,0,1-9.6,17.7L224.7,423.2A19.66,19.66,0,0,1,213.1,426.7Z" transform="translate(-32 -0.7)"/><path class="cls-2" d="M213.1,213.7a20.27,20.27,0,0,1-11.7-3.6L41.6,103.6A21,21,0,0,1,32,85.9V22A21.38,21.38,0,0,1,53.3.7,20.27,20.27,0,0,1,65,4.3l148,98.6L361.1,4.4A20.5,20.5,0,0,1,372.8.8a21.38,21.38,0,0,1,21.3,21.3V86a21.11,21.11,0,0,1-9.6,17.7L224.7,210.2A19.66,19.66,0,0,1,213.1,213.7Z" transform="translate(-32 -0.7)"/><path class="cls-3" d="M213.1,639.7a20.27,20.27,0,0,1-11.7-3.6L41.6,529.6A21,21,0,0,1,32,511.9V448a21.38,21.38,0,0,1,21.3-21.3A20.27,20.27,0,0,1,65,430.3l148,98.6,148.1-98.5a20.5,20.5,0,0,1,11.7-3.6,21.38,21.38,0,0,1,21.3,21.3V512a21.11,21.11,0,0,1-9.6,17.7L224.8,636.1A19.57,19.57,0,0,1,213.1,639.7Z" transform="translate(-32 -0.7)"/></svg>