<svg id="Layer_1" data-name="Layer 1" xmlns="http://www.w3.org/2000/svg" viewBox="0 0 160.08 173.98"><defs><style>.cls-1{fill:#2541b3;}</style></defs><path class="cls-1" d="M89.32,91.61a3.46,3.46,0,0,0-4.91,0L32.58,143.43a3.48,3.48,0,1,0,4.92,4.92L89.32,96.52A3.46,3.46,0,0,0,89.32,91.61Z" transform="translate(-6.95 0)"/><path class="cls-1" d="M53.86,104.49A13.9,13.9,0,1,0,40,118.38,13.92,13.92,0,0,0,53.86,104.49Zm-20.85,0a7,7,0,1,1,7,6.94A7,7,0,0,1,33,104.49Z" transform="translate(-6.95 0)"/><path class="cls-1" d="M81.65,121.86a13.9,13.9,0,1,0,13.9,13.9A13.92,13.92,0,0,0,81.65,121.86Zm0,20.85a7,7,0,1,1,6.95-7A7,7,0,0,1,81.65,142.71Z" transform="translate(-6.95 0)"/><path class="cls-1" d="M166,25.59,141.44,1a3.46,3.46,0,0,0-4.91,0L112,25.59a3.47,3.47,0,1,0,4.91,4.91l18.64-18.64V118.38H111.19V101A31.33,31.33,0,0,0,79.9,69.74H38.24A31.33,31.33,0,0,0,7,101v41.66A31.33,31.33,0,0,0,38.24,174H79.9a31.33,31.33,0,0,0,31.29-31.29V125.33h31.27V11.86L161.1,30.5A3.47,3.47,0,1,0,166,25.59Zm-61.77,92.79v24.31A24.37,24.37,0,0,1,79.9,167H38.24A24.37,24.37,0,0,1,13.9,142.69V101A24.37,24.37,0,0,1,38.24,76.69H79.9A24.37,24.37,0,0,1,104.24,101Z" transform="translate(-6.95 0)"/></svg>