<svg id="Layer_1" data-name="Layer 1" xmlns="http://www.w3.org/2000/svg" viewBox="0 0 429.06 487"><defs><style>.cls-1{fill:#2541b3;}</style></defs><path class="cls-1" d="M249.86,265.78a7.65,7.65,0,0,0-2.74-.09,18.15,18.15,0,0,1-16.06-18,8,8,0,1,0-16,0,34.18,34.18,0,0,0,25.13,32.91v8a8,8,0,1,0,16,0v-7.5a34.11,34.11,0,0,0-7-67.5,18.14,18.14,0,1,1,18.14-18.14,8,8,0,0,0,16,0A34.17,34.17,0,0,0,256.18,162v-7.27a8,8,0,1,0-16,0v7.76a34.11,34.11,0,0,0,9,67,18.13,18.13,0,0,1,.67,36.24Z" transform="translate(-29.68)"/><path class="cls-1" d="M133.36,222.17A115.84,115.84,0,1,0,249.19,106.34,115.83,115.83,0,0,0,133.36,222.17Zm115.83-99.86a99.86,99.86,0,1,1-99.86,99.86A99.86,99.86,0,0,1,249.19,122.31Z" transform="translate(-29.68)"/><path class="cls-1" d="M404.41,357.7l-62.57,29.57a51,51,0,0,0-43.46-26.81l-57.76-1.59a61,61,0,0,1-26.26-6.78l-5.87-3a103.72,103.72,0,0,0-96,.1l.37-13.31a8,8,0,0,0-7.77-8.21l-63.34-1.74a8,8,0,0,0-8.2,7.76l-3.83,139a8,8,0,0,0,7.76,8.21l63.35,1.74H101a8,8,0,0,0,8-7.77l.18-6.65,16.45-8.81a28.25,28.25,0,0,1,21.07-2.31L245,484.64l.52.13a105.17,105.17,0,0,0,21.6,2.23,106.45,106.45,0,0,0,44.52-9.72,7.29,7.29,0,0,0,1-.54l142.48-92.16a8,8,0,0,0,2.62-10.64A40.36,40.36,0,0,0,404.41,357.7ZM45.87,465.11l3.39-123,47.37,1.3-3.39,123ZM304.41,463A90.57,90.57,0,0,1,249,469.2l-98-27.51a44.11,44.11,0,0,0-32.92,3.6l-8.41,4.5,2.25-81.8a87.78,87.78,0,0,1,89.2-4.76l5.88,3a77.1,77.1,0,0,0,33.16,8.56L298,376.43a35,35,0,0,1,33.3,27.92L245.2,402a8,8,0,1,0-.44,16l95,2.61h.22a8,8,0,0,0,8-7.77,50.62,50.62,0,0,0-.77-10.36l64.18-30.33.19-.09a24.4,24.4,0,0,1,27.6,3.86Z" transform="translate(-29.68)"/><path class="cls-1" d="M257.18,83.88V8a8,8,0,1,0-16,0V83.88a8,8,0,0,0,16,0Z" transform="translate(-29.68)"/><path class="cls-1" d="M317.09,83.88V47.93a8,8,0,1,0-16,0V83.88a8,8,0,0,0,16,0Z" transform="translate(-29.68)"/><path class="cls-1" d="M197.27,83.88V47.93a8,8,0,0,0-16,0V83.88a8,8,0,0,0,16,0Z" transform="translate(-29.68)"/></svg>