<svg id="Layer_1" data-name="Layer 1" xmlns="http://www.w3.org/2000/svg" viewBox="0 0 512 512"><defs><style>.cls-1{fill:#2541b3;}</style></defs><path class="cls-1" d="M462,172a10,10,0,1,0-7.07-2.93A10.08,10.08,0,0,0,462,172Z"/><path class="cls-1" d="M196.5,443.67h-.15a10,10,0,1,0,0,20h.15a10,10,0,1,0,0-20Z"/><path class="cls-1" d="M512,401.59V70a30,30,0,0,0-30-30H447.75V34a34,34,0,0,0-68,0v6H289.87V34a34,34,0,0,0-68,0v6H132V34a34,34,0,0,0-68,0v6H30A30,30,0,0,0,0,70V482a30,30,0,0,0,30,30H401.59a10,10,0,0,0,7.07-2.93h0L509.07,408.66h0A10,10,0,0,0,512,401.59ZM399.75,34a14,14,0,0,1,28,0V83a14,14,0,0,1-28,0ZM241.87,34a14,14,0,0,1,28,0V83a14,14,0,0,1-28,0V34ZM84,34a14,14,0,0,1,28,0V83a14,14,0,0,1-28,0ZM20,482V463.67H156.5a10,10,0,1,0,0-20H20V172H422a10,10,0,0,0,0-20H20V70A10,10,0,0,1,30,60H64V83a34,34,0,0,0,68,0V60h89.87V83a34,34,0,0,0,68,0V60h89.88V83a34,34,0,0,0,68,0V60H482a10,10,0,0,1,10,10V391.59H421.59a30,30,0,0,0-30,30V492H30A10,10,0,0,1,20,482Zm391.59-4.14V421.59a10,10,0,0,1,10-10h56.27Z"/><path class="cls-1" d="M196.06,350.51v-69A19.51,19.51,0,0,0,176.57,262H133.26a10,10,0,1,0,0,20h42.8v24h-42.8a10,10,0,1,0,0,20h42.8v24h-42.8a10,10,0,1,0,0,20h43.31A19.51,19.51,0,0,0,196.06,350.51Z"/><path class="cls-1" d="M282.86,282a10,10,0,0,0,0-20H239.55a19.51,19.51,0,0,0-19.49,19.49v69A19.51,19.51,0,0,0,239.55,370h33.82a19.51,19.51,0,0,0,19.49-19.49v-25A19.51,19.51,0,0,0,273.37,306H240.06V282Zm-24.2,44h14.2v24h-32.8V326Z"/><path class="cls-1" d="M370.17,306H336.86V282h42.8a10,10,0,1,0,0-20H336.35a19.51,19.51,0,0,0-19.49,19.49v25A19.51,19.51,0,0,0,336.35,326h33.31v24h-42.8a10,10,0,0,0,0,20h43.31a19.51,19.51,0,0,0,19.49-19.49v-25A19.51,19.51,0,0,0,370.17,306Z"/></svg>